{
  "accessors": [
    {
      "bufferView": 1,
      "componentType": 5126,
      "count": 65532,
      "max": [
        1914.6949462890625,
        37.0,
        361.76611328125
      ],
      "min": [
        -1355.06103515625,
        -20.0,
        -104.82749938964844
      ],
      "type": "VEC3"
    },
    {
      "bufferView": 1,
      "byteOffset": 786384,
      "componentType": 5126,
      "count": 65532,
      "max": [
        1.0,
        1.0,
        1.0
      ],
      "min": [
        -1.0,
        -1.0,
        -1.0
      ],
      "type": "VEC3"
    },
    {
      "bufferView": 0,
      "componentType": 5125,
      "count": 68136,
      "type": "SCALAR"
    },
    {
      "bufferView": 1,
      "byteOffset": 1572768,
      "componentType": 5126,
      "count": 65532,
      "max": [
        1914.6949462890625,
        172.01300048828125,
        361.76611328125
      ],
      "min": [
        -1963.6090087890625,
        -102.07589721679688,
        -47.85837936401367
      ],
      "type": "VEC3"
    },
    {
      "bufferView": 1,
      "byteOffset": 2359152,
      "componentType": 5126,
      "count": 65532,
      "max": [
        1.0,
        1.0,
        1.0
      ],
      "min": [
        -1.0,
        -1.0,
        -1.0
      ],
      "type": "VEC3"
    },
    {
      "bufferView": 0,
      "byteOffset": 272544,
      "componentType": 5125,
      "count": 71565,
      "type": "SCALAR"
    },
    {
      "bufferView": 1,
      "byteOffset": 3145536,
      "componentType": 5126,
      "count": 65532,
      "max": [
        1914.6949462890625,
        180.0,
        361.76611328125
      ],
      "min": [
        -1782.9630126953125,
        -44.169921875,
        -104.82749938964844
      ],
      "type": "VEC3"
    },
    {
      "bufferView": 1,
      "byteOffset": 3931920,
      "componentType": 5126,
      "count": 65532,
      "max": [
        1.0,
        1.0,
        1.0
      ],
      "min": [
        -1.0,
        -1.0,
        -1.0
      ],
      "type": "VEC3"
    },
    {
      "bufferView": 0,
      "byteOffset": 558804,
      "componentType": 5125,
      "count": 75516,
      "type": "SCALAR"
    },
    {
      "bufferView": 1,
      "byteOffset": 4718304,
      "componentType": 5126,
      "count": 39928,
      "max": [
        1905.1519775390625,
        180.0,
        392.7745056152344
      ],
      "min": [
        -1357.25,
        -12.0,
        -104.82749938964844
      ],
      "type": "VEC3"
    },
    {
      "bufferView": 1,
      "byteOffset": 5197440,
      "componentType": 5126,
      "count": 39928,
      "max": [
        1.0,
        1.0,
        1.0
      ],
      "min": [
        -1.0,
        -1.0,
        -1.0
      ],
      "type": "VEC3"
    },
    {
      "bufferView": 0,
      "byteOffset": 860868,
      "componentType": 5125,
      "count": 46233,
      "type": "SCALAR"
    }
  ],
  "asset": {
    "extras": {
      "author": "statelibrarynsw (https://sketchfab.com/statelibrarynsw)",
      "license": "CC-BY-4.0 (http://creativecommons.org/licenses/by/4.0/)",
      "source": "https://sketchfab.com/3d-models/mcclintic-marshall-products-co-tender-d-c7125bf6af4b4d36aec88255462a28f9",
      "title": "McClintic Marshall Products Co., Tender D"
    },
    "generator": "Sketchfab-12.67.0",
    "version": "2.0"
  },
  "bufferViews": [
    {
      "buffer": 0,
      "byteLength": 1045800,
      "name": "floatBufferViews",
      "target": 34963
    },
    {
      "buffer": 0,
      "byteLength": 5676576,
      "byteOffset": 1045800,
      "byteStride": 12,
      "name": "floatBufferViews",
      "target": 34962
    }
  ],
  "buffers": [
    {
      "byteLength": 6722376,
      "uri": "scene.bin"
    }
  ],
  "materials": [
    {
      "name": "material_0",
      "pbrMetallicRoughness": {
        "baseColorFactor": [
          0.937255,
          0.913725,
          0.760784,
          1.0
        ],
        "metallicFactor": 0.0,
        "roughnessFactor": 0.9
      }
    }
  ],
  "meshes": [
    {
      "name": "Object_0",
      "primitives": [
        {
          "attributes": {
            "NORMAL": 1,
            "POSITION": 0
          },
          "indices": 2,
          "material": 0,
          "mode": 4
        }
      ]
    },
    {
      "name": "Object_1",
      "primitives": [
        {
          "attributes": {
            "NORMAL": 4,
            "POSITION": 3
          },
          "indices": 5,
          "material": 0,
          "mode": 4
        }
      ]
    },
    {
      "name": "Object_2",
      "primitives": [
        {
          "attributes": {
            "NORMAL": 7,
            "POSITION": 6
          },
          "indices": 8,
          "material": 0,
          "mode": 4
        }
      ]
    },
    {
      "name": "Object_3",
      "primitives": [
        {
          "attributes": {
            "NORMAL": 10,
            "POSITION": 9
          },
          "indices": 11,
          "material": 0,
          "mode": 4
        }
      ]
    }
  ],
  "nodes": [
    {
      "children": [
        1
      ],
      "matrix": [
        1.0,
        0.0,
        0.0,
        0.0,
        0.0,
        2.220446049250313e-16,
        -1.0,
        0.0,
        0.0,
        1.0,
        2.220446049250313e-16,
        0.0,
        0.0,
        0.0,
        0.0,
        1.0
      ],
      "name": "Sketchfab_model"
    },
    {
      "children": [
        2
      ],
      "name": "root"
    },
    {
      "children": [
        3
      ],
      "matrix": [
        1.0,
        0.0,
        0.0,
        0.0,
        0.0,
        2.220446049250313e-16,
        1.0,
        0.0,
        0.0,
        -1.0,
        2.220446049250313e-16,
        0.0,
        0.0,
        0.0,
        0.0,
        1.0
      ],
      "name": "GLTF_SceneRootNode"
    },
    {
      "children": [
        4,
        5,
        6,
        7
      ],
      "matrix": [
        2.2204460823375376e-17,
        2.2204460823375376e-17,
        -0.10000000149011612,
        0.0,
        -0.10000000149011612,
        0.0,
        -2.2204460823375376e-17,
        0.0,
        0.0,
        0.10000000149011612,
        2.2204460823375376e-17,
        0.0,
        0.0,
        0.0,
        0.0,
        1.0
      ],
      "name": "McClinticMarshallTenderD_Curve.stl_0"
    },
    {
      "mesh": 0,
      "name": "Object_4"
    },
    {
      "mesh": 1,
      "name": "Object_5"
    },
    {
      "mesh": 2,
      "name": "Object_6"
    },
    {
      "mesh": 3,
      "name": "Object_7"
    }
  ],
  "scene": 0,
  "scenes": [
    {
      "name": "Sketchfab_Scene",
      "nodes": [
        0
      ]
    }
  ]
}
